<svg width="554" height="265" viewBox="0 0 554 265" fill="none" xmlns="http://www.w3.org/2000/svg">
<path d="M30.396 205.192L9.36789 198.692L13.2904 186.001L15.5493 186.7L12.4138 196.844L19.519 199.04L22.4513 189.553L24.7102 190.251L21.7779 199.738L28.9241 201.947L32.1104 191.638L34.3692 192.336L30.396 205.192Z" fill="#ffffff"/>
<path d="M16.6192 176.663L36.248 177.482L36.3439 177.243L21.5719 164.291L22.6104 161.697L40.0398 177.38L39.0173 179.934L15.5807 179.257L16.6192 176.663Z" fill="#ffffff"/>
<path d="M44.2041 168.035L42.9304 170.522L27.0247 153.296L28.2788 150.847L51.5526 153.687L50.2788 156.174L30.7901 153.582L30.7117 153.735L44.2041 168.035ZM37.0222 163.198L42.1563 153.173L44.2607 154.251L39.1265 164.276L37.0222 163.198Z" fill="#ffffff"/>
<path d="M44.452 124.074L62.9065 136.068L61.5009 138.231L40.4756 138.87L40.3585 139.05L54.8481 148.467L53.3958 150.702L34.9413 138.708L36.3468 136.546L57.4316 135.894L57.5487 135.713L43.023 126.273L44.452 124.074Z" fill="#ffffff"/>
<path d="M64.0362 110.199C63.3273 109.922 62.6286 109.751 61.9402 109.685C61.2508 109.609 60.58 109.646 59.9278 109.796C59.2801 109.94 58.6615 110.201 58.0721 110.579C57.4827 110.957 56.9353 111.453 56.4298 112.067C55.6011 113.074 55.1075 114.203 54.9489 115.455C54.7904 116.708 55.0169 117.994 55.6285 119.314C56.24 120.634 57.2815 121.9 58.7528 123.111C60.2242 124.322 61.6686 125.098 63.0862 125.439C64.5037 125.78 65.8185 125.744 67.0306 125.331C68.2426 124.919 69.2813 124.187 70.1464 123.136C70.9479 122.162 71.4462 121.134 71.6415 120.051C71.8359 118.959 71.7221 117.891 71.3003 116.847C70.8775 115.794 70.1461 114.839 69.1062 113.983L69.7581 113.462L65.5506 118.573L63.7253 117.07L69.0529 110.599L70.8782 112.101C72.2777 113.253 73.2487 114.554 73.7913 116.003C74.3385 117.446 74.4666 118.925 74.1757 120.439C73.8839 121.944 73.1824 123.371 72.0714 124.721C70.8328 126.225 69.3905 127.256 67.7445 127.812C66.103 128.363 64.3677 128.42 62.5386 127.981C60.7141 127.537 58.9058 126.577 57.1136 125.102C55.7694 123.996 54.7088 122.821 53.9317 121.578C53.1536 120.325 52.6588 119.055 52.4475 117.767C52.2361 116.479 52.3019 115.216 52.6448 113.976C52.9878 112.737 53.6078 111.572 54.5049 110.482C55.2425 109.586 56.0656 108.863 56.9742 108.311C57.8817 107.75 58.8321 107.368 59.8253 107.165C60.8175 106.951 61.8222 106.92 62.8396 107.071C63.8514 107.217 64.8331 107.552 65.7848 108.075L64.0362 110.199Z" fill="#ffffff"/>
<path d="M82.2943 112.228L66.7389 96.6568L76.1361 87.2688L77.8071 88.9414L70.2954 96.4457L75.5514 101.707L82.5765 94.6888L84.2475 96.3614L77.2224 103.38L82.5089 108.671L90.1422 101.045L91.8132 102.718L82.2943 112.228Z" fill="#ffffff"/>
<path d="M97.8676 97.0935L83.4625 80.4527L85.4776 78.7083L98.3353 93.5615L106.071 86.8654L107.618 88.653L97.8676 97.0935Z" fill="#ffffff"/>
<path d="M99.7475 67.0337L113.152 84.4907L111.038 86.1139L97.6336 68.6568L99.7475 67.0337Z" fill="#ffffff"/>
<path d="M118.627 60.3591C117.909 59.5308 117.001 59.1254 115.904 59.1429C114.808 59.1604 113.708 59.5436 112.606 60.2925C111.8 60.8401 111.183 61.4495 110.756 62.121C110.334 62.7884 110.11 63.465 110.082 64.1508C110.06 64.8326 110.246 65.4639 110.641 66.0447C110.971 66.5306 111.371 66.8699 111.839 67.0625C112.31 67.2452 112.807 67.3273 113.332 67.3088C113.852 67.2844 114.364 67.2094 114.868 67.0838C115.367 66.9522 115.816 66.8161 116.215 66.6756L118.402 65.9172C118.96 65.7196 119.605 65.5331 120.334 65.3578C121.07 65.1785 121.833 65.0973 122.624 65.1142C123.417 65.1212 124.188 65.2993 124.936 65.6485C125.684 65.9976 126.348 66.5989 126.928 67.4523C127.597 68.4361 127.943 69.5002 127.967 70.6446C127.996 71.7849 127.678 72.9234 127.013 74.0599C126.353 75.1924 125.324 76.2337 123.925 77.1839C122.621 78.0696 121.35 78.6262 120.11 78.8537C118.875 79.0771 117.73 78.9977 116.674 78.6154C115.623 78.2292 114.724 77.5624 113.976 76.6151L116.252 75.069C116.778 75.7162 117.396 76.1281 118.105 76.3048C118.816 76.4714 119.557 76.453 120.328 76.2496C121.101 76.0361 121.849 75.6838 122.572 75.1926C123.414 74.6209 124.077 73.9713 124.561 73.2437C125.042 72.5102 125.311 71.7647 125.368 71.0071C125.42 70.2435 125.221 69.5299 124.771 68.8661C124.36 68.2617 123.857 67.8845 123.261 67.7347C122.666 67.5849 122.012 67.5787 121.3 67.7161C120.588 67.8535 119.851 68.0507 119.09 68.3077L116.415 69.1896C114.715 69.7469 113.193 69.9281 111.848 69.7332C110.503 69.5383 109.413 68.8275 108.58 67.6007C107.887 66.5814 107.559 65.5052 107.595 64.3722C107.633 63.2293 107.977 62.1294 108.627 61.0725C109.28 60.0056 110.187 59.0776 111.348 58.2885C112.522 57.4913 113.708 56.9931 114.906 56.7939C116.101 56.5887 117.21 56.6664 118.235 57.0271C119.265 57.3837 120.107 58.0112 120.761 58.9097L118.627 60.3591Z" fill="#ffffff"/>
<path d="M142.959 47.5122L140.641 48.8278C140.126 48.2389 139.554 47.7893 138.925 47.4791C138.302 47.1654 137.65 46.9751 136.969 46.9083C136.292 46.8317 135.61 46.8723 134.925 47.0303C134.241 47.1883 133.581 47.4476 132.945 47.8084C131.786 48.4662 130.902 49.355 130.294 50.4747C129.692 51.5909 129.437 52.8765 129.53 54.3315C129.629 55.7829 130.148 57.3374 131.089 58.9948C132.03 60.6522 133.098 61.8954 134.294 62.7245C135.495 63.5499 136.73 63.9903 137.997 64.0455C139.27 64.0972 140.486 63.7941 141.645 63.1363C142.281 62.7756 142.842 62.3418 143.328 61.8349C143.815 61.328 144.201 60.767 144.486 60.152C144.774 59.5272 144.943 58.867 144.993 58.1713C145.046 57.4659 144.953 56.744 144.716 56.0057L147.034 54.6901C147.414 55.7674 147.593 56.8232 147.571 57.8575C147.548 58.8919 147.348 59.8746 146.97 60.8057C146.589 61.7306 146.051 62.5755 145.357 63.3404C144.669 64.1017 143.842 64.7565 142.876 65.3047C141.243 66.2313 139.565 66.6565 137.841 66.5804C136.118 66.5043 134.474 65.9379 132.91 64.8812C131.347 63.8245 129.992 62.2868 128.846 60.268C127.7 58.2492 127.074 56.2976 126.969 54.4134C126.863 52.5291 127.22 50.8275 128.038 49.3084C128.856 47.7894 130.082 46.5666 131.714 45.64C132.68 45.0919 133.666 44.7175 134.673 44.5169C135.686 44.3128 136.689 44.2872 137.682 44.4403C138.671 44.5871 139.616 44.916 140.515 45.4269C141.411 45.9316 142.226 46.6267 142.959 47.5122Z" fill="#ffffff"/>
<path d="M154.428 58.6487L145.352 38.5978L147.78 37.4987L151.822 46.4276L162.513 41.5881L158.471 32.6591L160.899 31.5601L169.976 51.611L167.548 52.71L163.488 43.742L152.797 48.5815L156.856 57.5496L154.428 58.6487Z" fill="#ffffff"/>
<path d="M174.702 49.6425L167.244 28.935L179.741 24.434L180.542 26.6585L170.553 30.2563L173.073 37.2532L182.415 33.8884L183.216 36.1128L173.874 39.4776L176.408 46.515L186.56 42.8588L187.361 45.0833L174.702 49.6425Z" fill="#ffffff"/>
<path d="M201.105 23.6883C200.682 22.6764 199.947 22.0068 198.9 21.6795C197.853 21.3522 196.689 21.3713 195.408 21.7367C194.471 22.0039 193.694 22.3893 193.078 22.8929C192.468 23.3945 192.043 23.9665 191.801 24.609C191.567 25.2496 191.546 25.9075 191.738 26.5827C191.899 27.1477 192.172 27.5951 192.557 27.925C192.946 28.246 193.393 28.48 193.897 28.6268C194.399 28.7669 194.909 28.8562 195.426 28.8948C195.942 28.9266 196.411 28.9381 196.833 28.9295L199.148 28.8953C199.74 28.8828 200.41 28.9077 201.158 28.9701C201.913 29.0305 202.663 29.1928 203.409 29.4569C204.16 29.7122 204.836 30.123 205.437 30.6891C206.038 31.2553 206.48 32.0345 206.763 33.0266C207.089 34.1704 207.084 35.2893 206.748 36.3835C206.418 37.4757 205.76 38.4571 204.771 39.3275C203.789 40.196 202.486 40.8621 200.86 41.3257C199.344 41.758 197.961 41.8876 196.713 41.7148C195.471 41.54 194.408 41.1054 193.525 40.4111C192.648 39.7149 192.004 38.7998 191.591 37.6659L194.237 36.9114C194.533 37.691 194.991 38.2758 195.609 38.6659C196.231 39.047 196.941 39.262 197.737 39.3106C198.538 39.3504 199.359 39.2504 200.199 39.0107C201.178 38.7317 202.011 38.3228 202.699 37.7838C203.385 37.238 203.874 36.6143 204.166 35.9127C204.456 35.2043 204.491 34.4643 204.271 33.6926C204.07 32.9898 203.711 32.474 203.192 32.145C202.674 31.816 202.055 31.6051 201.335 31.5122C200.616 31.4193 199.855 31.3756 199.052 31.3811L196.235 31.3797C194.446 31.3758 192.944 31.0704 191.727 30.4636C190.511 29.8567 189.7 28.8402 189.293 27.414C188.955 26.2289 188.981 25.1041 189.37 24.0394C189.765 22.966 190.436 22.0294 191.385 21.2298C192.339 20.4213 193.492 19.8246 194.842 19.4395C196.206 19.0505 197.489 18.9493 198.689 19.1359C199.888 19.3156 200.917 19.7374 201.777 20.4011C202.643 21.0629 203.246 21.9228 203.585 22.981L201.105 23.6883Z" fill="#ffffff"/>
<path d="M231.542 17.3693C231.237 16.3161 230.582 15.5678 229.579 15.1244C228.576 14.6809 227.417 14.5683 226.102 14.7867C225.141 14.9463 224.326 15.2415 223.656 15.6722C222.994 16.1017 222.507 16.622 222.194 17.2331C221.889 17.8431 221.794 18.4944 221.909 19.187C222.005 19.7666 222.226 20.242 222.57 20.6132C222.921 20.9762 223.339 21.2591 223.823 21.462C224.305 21.6578 224.802 21.8041 225.312 21.901C225.82 21.9908 226.285 22.0553 226.706 22.0944L229.009 22.3219C229.599 22.3764 230.262 22.4769 230.999 22.6234C231.742 22.7687 232.469 23.0147 233.18 23.3614C233.897 23.6998 234.522 24.1843 235.056 24.8147C235.589 25.4452 235.94 26.2693 236.109 27.2871C236.304 28.4603 236.172 29.5715 235.715 30.6207C235.264 31.6688 234.499 32.5694 233.418 33.3226C232.345 34.0746 230.974 34.5891 229.306 34.8661C227.751 35.1243 226.363 35.097 225.142 34.7842C223.928 34.4702 222.921 33.9184 222.122 33.1288C221.329 32.338 220.792 31.3559 220.51 30.1826L223.224 29.7319C223.431 30.54 223.819 31.1728 224.389 31.6301C224.965 32.0792 225.645 32.3729 226.431 32.5111C227.222 32.6411 228.049 32.6345 228.912 32.4913C229.915 32.3247 230.789 32.0125 231.534 31.5547C232.278 31.0899 232.834 30.5254 233.203 29.8613C233.571 29.1902 233.689 28.4588 233.557 27.6672C233.438 26.9463 233.139 26.3931 232.661 26.0077C232.183 25.6223 231.592 25.3428 230.888 25.1692C230.183 24.9957 229.432 24.8663 228.633 24.781L225.835 24.4614C224.058 24.2554 222.599 23.7822 221.459 23.0419C220.32 22.3015 219.628 21.1998 219.385 19.7368C219.184 18.5212 219.336 17.4064 219.843 16.3926C220.356 15.3705 221.129 14.5158 222.163 13.8286C223.202 13.1331 224.414 12.6703 225.8 12.4402C227.199 12.2078 228.485 12.2521 229.656 12.5732C230.827 12.8872 231.802 13.4225 232.581 14.1791C233.368 14.9345 233.869 15.8571 234.087 16.9467L231.542 17.3693Z" fill="#ffffff"/>
<path d="M258.8 15.661L256.147 15.9179C255.917 15.17 255.577 14.5263 255.129 13.9866C254.688 13.4463 254.17 13.0069 253.576 12.6686C252.988 12.3224 252.35 12.0819 251.66 11.9472C250.97 11.8124 250.262 11.7803 249.534 11.8507C248.208 11.9791 247.039 12.4307 246.027 13.2053C245.022 13.9792 244.266 15.0494 243.757 16.4159C243.256 17.7816 243.097 19.413 243.281 21.3099C243.465 23.2068 243.934 24.7774 244.688 26.0216C245.449 27.2652 246.396 28.1703 247.531 28.7371C248.673 29.3031 249.907 29.5219 251.233 29.3935C251.961 29.3231 252.65 29.1555 253.301 28.891C253.952 28.6264 254.533 28.2714 255.044 27.826C255.562 27.3728 255.985 26.8387 256.314 26.2238C256.65 25.6011 256.859 24.9041 256.943 24.133L259.596 23.8761C259.504 25.0151 259.238 26.0522 258.796 26.9876C258.354 27.923 257.77 28.7389 257.046 29.4352C256.321 30.1245 255.486 30.6769 254.54 31.0924C253.601 31.5072 252.579 31.7681 251.474 31.8752C249.605 32.0561 247.899 31.7606 246.356 30.9887C244.813 30.2167 243.543 29.0297 242.545 27.4275C241.548 25.8254 240.938 23.869 240.714 21.5585C240.49 19.248 240.714 17.2108 241.385 15.4471C242.057 13.6833 243.076 12.2746 244.442 11.2209C245.808 10.1673 247.426 9.54996 249.294 9.36903C250.399 9.26199 251.453 9.32197 252.453 9.54896C253.462 9.77525 254.388 10.1606 255.232 10.7051C256.076 11.2424 256.805 11.9277 257.418 12.7608C258.031 13.5869 258.491 14.5536 258.8 15.661Z" fill="#ffffff"/>
<path d="M264.734 30.5893L264.359 8.58289L267.024 8.53747L267.191 18.3372L278.925 18.1372L278.758 8.33748L281.423 8.29206L281.798 30.2985L279.133 30.3439L278.965 20.5012L267.231 20.7012L267.399 30.5439L264.734 30.5893Z" fill="#ffffff"/>
<path d="M303.612 9.45404L306.272 9.62045L305.362 24.1648C305.268 25.6664 304.83 26.985 304.048 28.1206C303.274 29.2494 302.226 30.1135 300.904 30.7127C299.582 31.3048 298.059 31.5469 296.336 31.4391C294.612 31.3313 293.132 30.9013 291.894 30.149C290.656 29.3896 289.72 28.4015 289.086 27.1845C288.459 25.9608 288.192 24.5981 288.286 23.0965L289.196 8.55218L291.856 8.7186L290.96 23.0484C290.893 24.121 291.069 25.0904 291.489 25.9565C291.909 26.8155 292.54 27.5118 293.382 28.0455C294.232 28.5725 295.269 28.8742 296.491 28.9507C297.714 29.0272 298.78 28.857 299.689 28.4401C300.599 28.016 301.312 27.4038 301.828 26.6034C302.353 25.7963 302.648 24.8564 302.715 23.7838L303.612 9.45404Z" fill="#ffffff"/>
<path d="M309.94 32.1914L313.052 10.4031L315.691 10.78L312.912 30.2278L323.041 31.6747L322.706 34.0153L309.94 32.1914Z" fill="#ffffff"/>
<path d="M326.801 34.6014L327.204 32.7094L342.498 17.8591L330.768 15.3604L331.26 13.048L346.102 16.2094L345.699 18.1014L330.405 32.9517L342.135 35.4504L341.643 37.7628L326.801 34.6014Z" fill="#ffffff"/>
<path d="M346.777 38.9739L352.812 17.808L365.586 21.4506L364.938 23.7243L354.727 20.8126L352.688 27.9643L362.237 30.6874L361.589 32.9611L352.039 30.238L349.988 37.4311L360.364 40.3899L359.716 42.6636L346.777 38.9739Z" fill="#ffffff"/>
<path d="M390.501 30.2406L382.809 50.8623L380.392 49.9609L375.194 29.5781L374.993 29.503L368.954 45.6942L366.456 44.7628L374.148 24.1411L376.565 25.0425L381.788 45.4806L381.989 45.5557L388.044 29.3242L390.501 30.2406Z" fill="#ffffff"/>
<path d="M394.367 34.426L395.367 32.2833L410.327 39.261L409.327 41.4037L403.055 38.4782L394.751 56.2819L392.335 55.1553L400.64 37.3515L394.367 34.426Z" fill="#ffffff"/>
<path d="M404.182 60.7498L415.046 41.6085L421.514 45.2795C423.009 46.1283 424.092 47.0805 424.761 48.136C425.434 49.1854 425.75 50.2833 425.709 51.4298C425.668 52.5763 425.327 53.7134 424.687 54.8412C424.047 55.969 423.249 56.8382 422.293 57.4488C421.337 58.0594 420.24 58.3434 419.004 58.3008C417.771 58.2519 416.414 57.8066 414.931 56.9649L409.697 53.9942L410.885 51.9006L416.044 54.8289C417.066 55.4089 417.973 55.7262 418.766 55.7808C419.565 55.8389 420.261 55.6734 420.852 55.2842C421.454 54.8923 421.972 54.3132 422.407 53.5468C422.842 52.7804 423.079 52.0293 423.117 51.2933C423.156 50.5574 422.949 49.8551 422.497 49.1863C422.048 48.5114 421.306 47.8803 420.272 47.2933L416.197 44.9803L406.5 62.0654L404.182 60.7498ZM418.072 57.2651L417.902 68.5373L415.21 67.0095L415.455 55.7797L418.072 57.2651Z" fill="#ffffff"/>
<path d="M447.703 61.7631L449.907 63.2608L441.718 75.3149C440.873 76.5595 439.825 77.4714 438.574 78.0506C437.332 78.628 435.99 78.8378 434.547 78.6801C433.108 78.5165 431.674 77.9496 430.246 76.9793C428.817 76.009 427.762 74.8849 427.08 73.6072C426.401 72.3235 426.099 70.9964 426.173 69.6259C426.256 68.2535 426.721 66.945 427.566 65.7005L435.755 53.6464L437.96 55.1441L429.892 67.0205C429.288 67.9094 428.946 68.8334 428.866 69.7925C428.79 70.7457 428.979 71.6664 429.432 72.5547C429.895 73.441 430.633 74.2284 431.647 74.9169C432.66 75.6054 433.664 76.0017 434.659 76.1057C435.658 76.2039 436.583 76.0401 437.435 75.6143C438.297 75.1867 439.031 74.5284 439.634 73.6394L447.703 61.7631Z" fill="#ffffff"/>
<path d="M455.628 67.5253L458.081 69.5501L452.222 88.402L452.421 88.5662L469.818 79.2361L472.272 81.2608L458.263 98.2363L456.34 96.6494L466.983 83.752L466.818 83.6152L450.869 92.1347L449.012 90.6025L454.351 73.3272L454.185 73.1904L443.542 86.0878L441.619 84.5008L455.628 67.5253Z" fill="#ffffff"/>
<path d="M467.265 107.195L483.374 92.1963L485.19 94.1469L470.812 107.534L477.784 115.022L476.053 116.633L467.265 107.195Z" fill="#ffffff"/>
<path d="M478.858 119.841L496.022 106.063L504.337 116.421L502.493 117.901L495.846 109.621L490.047 114.277L496.263 122.021L494.419 123.501L488.203 115.757L482.37 120.439L489.125 128.853L487.281 130.333L478.858 119.841Z" fill="#ffffff"/>
<path d="M511.04 125.814L492.894 138.27L491.386 136.073L509.531 123.617L511.04 125.814Z" fill="#ffffff"/>
<path d="M496.879 143.997L515.779 132.718L519.59 139.104C520.475 140.587 520.931 141.958 520.957 143.219C520.994 144.482 520.695 145.611 520.063 146.606C519.43 147.601 518.557 148.431 517.443 149.096C516.33 149.76 515.182 150.137 514 150.225C512.821 150.319 511.68 150.057 510.577 149.439C509.48 148.817 508.493 147.771 507.615 146.3L504.884 141.723L506.914 140.511L509.601 145.015C510.207 146.03 510.869 146.741 511.587 147.146C512.305 147.552 513.045 147.716 513.807 147.636C514.579 147.56 515.343 147.295 516.1 146.844C516.856 146.392 517.449 145.847 517.876 145.208C518.308 144.575 518.508 143.847 518.475 143.023C518.449 142.196 518.129 141.269 517.516 140.242L515.115 136.218L498.245 146.285L496.879 143.997Z" fill="#ffffff"/>
<path d="M506.853 161.085L508.598 160.249L529.697 163.29L524.512 152.475L526.644 151.453L533.205 165.136L531.46 165.972L510.361 162.932L515.546 173.746L513.414 174.768L506.853 161.085Z" fill="#ffffff"/>
<path d="M536.438 173.127L516.005 181.307L515.014 178.833L535.447 170.653L536.438 173.127Z" fill="#ffffff"/>
<path d="M537.334 196.574C537.949 196.126 538.47 195.63 538.896 195.085C539.331 194.545 539.661 193.96 539.886 193.33C540.114 192.706 540.227 192.044 540.226 191.344C540.225 190.644 540.102 189.916 539.857 189.159C539.455 187.919 538.769 186.895 537.799 186.087C536.829 185.279 535.624 184.777 534.182 184.582C532.74 184.386 531.113 184.582 529.3 185.169C527.487 185.757 526.055 186.556 525.005 187.567C523.954 188.578 523.276 189.705 522.971 190.948C522.666 192.192 522.723 193.461 523.143 194.756C523.532 195.956 524.13 196.929 524.937 197.677C525.753 198.429 526.714 198.909 527.82 199.115C528.936 199.326 530.134 199.224 531.415 198.809L531.504 199.639L529.463 193.341L531.712 192.612L534.296 200.586L532.047 201.315C530.322 201.874 528.704 201.992 527.191 201.669C525.68 201.352 524.365 200.664 523.245 199.603C522.135 198.547 521.31 197.188 520.771 195.525C520.171 193.671 520.079 191.901 520.496 190.214C520.916 188.534 521.803 187.041 523.158 185.736C524.514 184.438 526.297 183.431 528.505 182.716C530.161 182.179 531.722 181.918 533.188 181.932C534.663 181.952 536 182.219 537.198 182.734C538.397 183.249 539.426 183.985 540.286 184.942C541.146 185.898 541.793 187.048 542.228 188.391C542.586 189.495 542.753 190.578 542.728 191.641C542.712 192.708 542.523 193.714 542.159 194.661C541.804 195.611 541.29 196.475 540.615 197.251C539.947 198.025 539.136 198.672 538.182 199.192L537.334 196.574Z" fill="#ffffff"/>
<path d="M217.38 144.33H336.328" stroke="#ffffff" stroke-width="4" stroke-miterlimit="3.864"/>
<path d="M336.329 144.43L217.379 245.425" stroke="#ffffff" stroke-width="4" stroke-miterlimit="3.864"/>
<path d="M217.487 144.438L336.329 245.425" stroke="#ffffff" stroke-width="4" stroke-miterlimit="3.864"/>
<path d="M169.663 214.753L217.379 263.28H336.329L384.337 214.753H169.663Z" stroke="#ffffff" stroke-width="4" stroke-miterlimit="3.864"/>
<path d="M217.379 263.28L217.38 144.362L296.676 65.1185" stroke="#ffffff" stroke-width="4" stroke-miterlimit="3.864"/>
<path d="M257.169 65.1185L336.328 144.33V263.28" stroke="#ffffff" stroke-width="4" stroke-miterlimit="3.864"/>
<path d="M276.854 110.3L242.823 144.33" stroke="#ffffff" stroke-width="4" stroke-miterlimit="3.864"/>
<path d="M262.993 144.33L276.855 130.468" stroke="#ffffff" stroke-width="4" stroke-miterlimit="3.864"/>
<path d="M276.854 110.3L310.885 144.331" stroke="#ffffff" stroke-width="4" stroke-miterlimit="3.864"/>
<path d="M290.717 144.33L276.854 130.468" stroke="#ffffff" stroke-width="4" stroke-miterlimit="3.864"/>
<path d="M276.855 73.344C280.639 72.0828 284.563 70.8226 284.563 67.0438C284.563 64.5214 282.043 62 280.783 62H276.855C276.855 69.5623 276.854 255.716 276.854 263.279" stroke="#ffffff" stroke-width="4" stroke-miterlimit="3.864"/>
<path d="M276.854 164.256L217.379 214.754" stroke="#ffffff" stroke-width="4" stroke-miterlimit="3.864"/>
<path d="M276.854 164.257L336.328 214.753" stroke="#ffffff" stroke-width="4" stroke-miterlimit="3.864"/>
</svg>
